<?xml version="1.0" encoding="iso-8859-1"?>
<!-- Generator: Adobe Illustrator 18.0.0, SVG Export Plug-In . SVG Version: 6.00 Build 0)  -->
<!DOCTYPE svg PUBLIC "-//W3C//DTD SVG 1.1//EN" "http://www.w3.org/Graphics/SVG/1.1/DTD/svg11.dtd">
<svg version="1.1" id="Capa_1" xmlns="http://www.w3.org/2000/svg" xmlns:xlink="http://www.w3.org/1999/xlink" x="0px" y="0px"
	 viewBox="0 0 297 297" style="enable-background:new 0 0 297 297;" xml:space="preserve" fill="#6314a8">
<path d="M284.947,78.85c-1.755-1.899-17.733-18.554-37.99-18.554c-3.807,0-7.331,0.782-10.546,2.071l-9.651-9.651
	c0.622-2.43,0.992-5.021,0.992-7.793c0-23.559-20.012-41.718-20.864-42.479c-3.69-3.297-9.282-3.253-12.917,0.108
	c-0.848,0.783-20.745,19.437-20.745,42.372c0,11.083,5.871,19.534,11.663,25.179l-8.938,8.938l-0.785-9.9
	c-0.396-4.994-4.563-8.844-9.573-8.844h-28.697c-5.006,0-9.171,3.845-9.572,8.835l-3.163,39.431l-13.308-13.308
	c3.418-4.979,5.988-11.191,5.988-18.641c0-23.559-20.012-41.718-20.864-42.479c-3.69-3.297-9.282-3.252-12.917,0.108
	c-0.848,0.783-20.745,19.437-20.745,42.372c0,1.068,0.067,2.105,0.171,3.123c-3.693-1.745-7.853-2.845-12.444-2.845
	c-21.163,0-37.416,17.909-38.097,18.673c-3.299,3.689-3.252,9.282,0.107,12.917c1.755,1.899,17.733,18.554,37.99,18.554
	c8.308,0,15.283-3.711,20.585-8.335l10.054,17.616c-1.639-0.27-3.341-0.429-5.121-0.429c-0.023,0-0.049,0-0.071,0
	c-23.559,0.053-41.673,20.106-42.433,20.96c-3.29,3.698-3.231,9.289,0.137,12.917c0.783,0.844,19.434,20.649,42.328,20.649
	c0.03,0,0.061,0,0.09,0c12.873-0.029,22.181-7.973,27.664-14.505l13.577,23.789l-6.973,86.934c-0.215,2.672,0.698,5.311,2.515,7.281
	c1.818,1.97,4.377,3.09,7.057,3.09h63.377c2.678,0,5.235-1.119,7.053-3.086c1.818-1.967,2.732-4.604,2.52-7.275l-6.233-78.654
	c3.892,1.246,7.793,1.741,11.516,1.74c12.303,0,22.645-5.317,24.119-6.111c4.358-2.347,6.218-7.621,4.297-12.182
	c-0.874-2.075-9.022-20.448-25.71-26.489c-4.266-1.545-8.527-1.771-12.528-1.203l9.01-15.788
	c4.732,6.23,11.998,12.588,22.515,14.145c2.128,0.315,4.232,0.458,6.306,0.458c20.643,0,37.972-14.213,38.77-14.877
	c3.804-3.168,4.576-8.707,1.785-12.795c-0.65-0.952-16.19-23.366-38.878-26.725c-0.001,0-0.001,0-0.001,0
	c-2.674-0.395-5.243-0.419-7.695-0.162l4.482-7.853c5.463,5.498,13.194,10.296,22.799,10.296c21.163,0,37.416-17.909,38.097-18.673
	C288.353,88.077,288.306,82.484,284.947,78.85z M75.569,171.206c-0.016,0-0.031,0-0.047,0c-7.449,0-15.086-4.045-20.708-8.075
	c5.246-3.863,12.744-8.023,20.719-8.04c0.008,0,0.017,0,0.026,0c5.938,0,10.638,4.41,13.455,7.952
	C86.129,166.651,81.351,171.192,75.569,171.206z M224.559,127.157c7.383,1.092,14.352,6.24,19.325,11.07
	c-5.762,3.04-13.796,6.04-21.684,4.871c-5.882-0.87-9.88-5.932-12.144-9.858C213.457,130.093,218.867,126.309,224.559,127.157z
	 M206.836,46.371c-1.4,4.561-8.385,10.168-8.385,10.168c-3.045-2.9-6.019-6.932-6.019-11.617c0-7.466,4.075-15.118,8.128-20.745
	C204.411,29.427,209.182,38.727,206.836,46.371z M214.518,67.634l3.871,3.87l-37.788,66.212l-2.655-33.51L214.518,67.634z
	 M89.649,55.866c3.851,5.25,7.988,12.749,7.988,20.745c0,1.614-0.327,3.135-0.873,4.551l-2.211-2.211
	c-3.529-3.527-9.116-3.734-12.888-0.625c-0.087-0.562-0.144-1.132-0.144-1.715C81.522,69.145,85.596,61.494,89.649,55.866z
	 M50.043,107.828c-5.673,0-11.513-2.84-16.106-5.933c4.328-2.952,10.069-5.8,16.106-5.8c4.292,0,7.872,3.056,10.231,5.816
	C57.865,104.72,54.249,107.828,50.043,107.828z M83.892,103.193l3.871-3.87l34.383,34.383l-2.568,32.016L83.892,103.193z
	 M129.856,277.795l15.905-198.294h10.961l15.713,198.294H129.856z M193.855,183.002c3.482,1.26,6.548,4.034,8.984,6.99
	c-3.689,0.682-7.784,0.817-11.345-0.472c-2.461-0.891-4.067-3.218-5.084-5.472C188.736,182.931,191.517,182.155,193.855,183.002z
	 M246.957,91.234c-4.292,0-7.872-3.056-10.231-5.816c2.409-2.809,6.025-5.917,10.231-5.917c5.673,0,11.513,2.84,16.106,5.933
	C258.735,88.386,252.994,91.234,246.957,91.234z"/>
<g>
</g>
<g>
</g>
<g>
</g>
<g>
</g>
<g>
</g>
<g>
</g>
<g>
</g>
<g>
</g>
<g>
</g>
<g>
</g>
<g>
</g>
<g>
</g>
<g>
</g>
<g>
</g>
<g>
</g>
</svg>
