<?xml version="1.0" standalone="no"?>
<!DOCTYPE svg PUBLIC "-//W3C//DTD SVG 20010904//EN"
 "http://www.w3.org/TR/2001/REC-SVG-20010904/DTD/svg10.dtd">
<svg version="1.0" xmlns="http://www.w3.org/2000/svg"
 width="300.000000pt" height="300.000000pt" viewBox="0 0 300.000000 300.000000"
 preserveAspectRatio="xMidYMid meet">

<g transform="translate(0.000000,300.000000) scale(0.100000,-0.100000)"
fill="#6215a8" stroke="none">
<path d="M1290 2976 c-333 -52 -605 -190 -841 -425 -238 -239 -376 -514 -424
-846 -34 -237 -5 -506 80 -732 155 -412 512 -754 925 -887 189 -62 253 -71
475 -71 166 1 216 5 295 22 138 31 240 67 365 129 407 201 696 576 798 1034
29 130 31 451 4 580 -42 198 -123 392 -234 557 -73 110 -232 276 -343 359
-162 121 -381 219 -592 265 -121 26 -387 34 -508 15z m-46 -981 l54 -27 190 4
c157 3 193 7 215 21 34 22 37 21 37 -5 0 -36 -39 -105 -81 -142 -47 -43 -65
-44 -299 -17 -110 13 -159 15 -168 8 -16 -13 -87 -111 -127 -177 -27 -44 -26
-43 48 28 49 47 83 72 98 72 23 0 79 -45 79 -63 0 -6 -20 -33 -44 -61 -56 -66
-86 -115 -86 -143 0 -32 -24 -29 -54 8 -30 35 -32 55 -12 104 18 43 12 44 -22
3 -152 -180 -248 -421 -240 -603 3 -70 1 -80 -15 -83 -24 -5 -70 46 -104 116
-21 44 -29 75 -31 133 -4 68 1 89 37 199 41 123 144 349 201 442 16 26 30 51
30 55 0 10 -291 -4 -350 -17 -102 -23 -170 -73 -170 -125 0 -32 43 -45 151
-45 109 0 184 15 209 43 29 30 25 7 -5 -34 -59 -80 -177 -139 -248 -125 -89
18 -167 127 -167 234 0 48 4 57 33 85 42 40 119 74 209 93 58 13 108 15 249
10 156 -6 177 -5 190 10 35 42 109 42 193 -1z m204 -294 c20 -10 45 -28 55
-39 18 -19 17 -23 -42 -146 -63 -133 -87 -197 -49 -132 66 111 158 245 187
269 52 43 111 31 166 -34 34 -41 31 -54 -34 -197 -58 -128 -79 -198 -63 -214
15 -15 62 36 111 121 44 74 95 264 89 328 -3 33 0 38 19 41 24 4 97 -30 131
-61 30 -28 28 -44 -16 -194 -22 -70 -42 -143 -46 -162 l-6 -35 26 25 c60 55
127 172 163 283 30 93 40 112 58 114 39 6 133 -67 133 -102 0 -11 -22 -76 -49
-145 -63 -162 -67 -175 -50 -169 16 5 122 157 163 232 l29 54 -31 27 c-41 35
-43 80 -5 125 22 27 31 31 57 26 38 -8 76 -43 76 -70 -1 -12 -7 -32 -15 -46
-23 -40 -19 -49 18 -41 40 10 75 27 104 54 20 18 23 18 29 3 16 -42 -37 -76
-131 -84 l-60 -4 -34 -56 c-53 -86 -180 -251 -207 -268 -29 -20 -64 -13 -117
22 -36 24 -39 29 -35 64 l3 39 -64 -70 c-62 -68 -65 -70 -100 -64 -57 10 -111
50 -111 82 0 24 -4 21 -39 -29 -67 -93 -104 -106 -177 -63 -29 17 -49 39 -64
71 -21 42 -22 51 -11 100 7 29 34 99 61 154 27 55 46 100 42 100 -35 0 -190
-251 -222 -358 -8 -23 -19 -47 -26 -52 -18 -15 -89 16 -119 52 -44 53 -35 100
66 341 60 141 64 145 137 108z"/>
<path d="M2427 1663 c-10 -9 -8 -56 3 -73 7 -11 11 -9 19 13 15 39 14 67 -2
67 -8 0 -17 -3 -20 -7z"/>
</g>
</svg>
